<svg xmlns="http://www.w3.org/2000/svg" viewBox="0 0 24 24" width="24" height="24">
  <!-- File shape -->
  <path d="M6 2h9l5 5v15a1 1 0 01-1 1H5a1 1 0 01-1-1V3a1 1 0 011-1z" fill="#0f1117" stroke="#4ade80" stroke-width="0.8"/>
  <!-- Fold corner -->
  <path d="M15 2l5 5h-4a1 1 0 01-1-1V2z" fill="#4ade80" opacity="0.7"/>
  <!-- Vine leaf motif -->
  <path d="M8 11 Q10 9 12 11 Q10 13 8 11z" fill="#4ade80" opacity="0.9"/>
  <path d="M12 11 Q14 9 16 11 Q14 13 12 11z" fill="#4ade80" opacity="0.6"/>
  <line x1="10" y1="11" x2="10" y2="17" stroke="#4ade80" stroke-width="0.7" opacity="0.7"/>
  <!-- Extension text -->
  <text x="12" y="20.5" font-family="monospace" font-size="3.5" fill="#4ade80" text-anchor="middle">.vine</text>
</svg>
